Coordinates
version=1
nRows=16
nColumns=40
inDegrees=yes

Units are S.I. units (second, meters, Newtons, ...)
Angles are in degrees.

endheader
time	pelvis_tilt	pelvis_list	pelvis_rotation	pelvis_tx	pelvis_ty	pelvis_tz	hip_flexion_r	hip_adduction_r	hip_rotation_r	knee_angle_r	knee_angle_r_beta	ankle_angle_r	subtalar_angle_r	mtp_angle_r	hip_flexion_l	hip_adduction_l	hip_rotation_l	knee_angle_l	knee_angle_l_beta	ankle_angle_l	subtalar_angle_l	mtp_angle_l	lumbar_extension	lumbar_bending	lumbar_rotation	arm_flex_r	arm_add_r	arm_rot_r	elbow_flex_r	pro_sup_r	wrist_flex_r	wrist_dev_r	arm_flex_l	arm_add_l	arm_rot_l	elbow_flex_l	pro_sup_l	wrist_flex_l	wrist_dev_l
     20.18742857	     -3.04984685	     -3.05906320	     -1.68692680	      0.83686405	      0.93635951	      0.42006934	     31.72213078	     -4.63786077	     -5.52745977	     53.35338860	     53.35338860	      4.28538952	    -13.73902386	     -0.52692318	      7.98714467	     -1.68992986	     -8.58880607	     14.78425404	     14.78425404	     12.41056916	     -6.48282783	     -5.85128536	     -8.82306935	      5.15941912	      1.62608970	     -3.85574975	    -12.61876770	     -8.07493348	     21.32696840	     47.19867733	      0.00000000	      0.00000000	     19.16067389	    -14.11608627	     -5.23784309	     54.89021122	     46.61929401	      0.00000000	      0.00000000
     20.19985714	     -3.21899359	     -3.17961906	     -1.85626964	      0.83605442	      0.93608928	      0.42033465	     31.76047419	     -4.42847375	     -5.94307719	     49.33065321	     49.33065321	      4.36048207	    -12.91473017	     -0.11301521	      7.50415777	     -1.79561075	     -8.66685150	     14.45491372	     14.45491372	     12.67746557	     -6.42892327	     -5.90403538	     -8.73306405	      5.42459066	      1.59963376	     -5.33488339	    -12.80047730	     -8.23123972	     20.82718733	     47.22131651	      0.00000000	      0.00000000	     19.81722549	    -14.38337377	     -5.49035722	     55.79153630	     46.65785688	      0.00000000	      0.00000000
     20.21228571	     -3.30275997	     -3.33300591	     -2.08152941	      0.83539569	      0.93584048	      0.42076042	     31.50401532	     -4.12699104	     -6.43450502	     44.94229950	     44.94229950	      4.35751014	    -11.83162266	      0.23901188	      6.87642828	     -1.93776353	     -8.78132018	     14.06826238	     14.06826238	     12.96370144	     -6.35962090	     -5.98217441	     -8.80355733	      5.65687054	      1.82077846	     -6.85138303	    -13.00277469	     -8.45418539	     20.42360224	     47.24604583	      0.00000000	      0.00000000	     20.37394851	    -14.39880818	     -5.84253555	     57.20205549	     46.71056993	      0.00000000	      0.00000000
     20.22471429	     -3.28940005	     -3.33369223	     -2.35894974	      0.83486099	      0.93552063	      0.42132059	     30.92450542	     -3.92565312	     -6.96335980	     40.12302927	     40.12302927	      3.33609412	    -10.88370924	     -2.23475634	      6.10286029	     -1.91235456	     -8.98292820	     13.61011639	     13.61011639	     13.06163663	     -6.34670565	     -6.47033064	     -9.11081772	      5.66495435	      1.70792250	     -8.15029541	    -12.93925302	    -11.45185390	     20.72313800	     47.49968211	      0.00000000	      0.00000000	     19.73508976	    -14.33629137	     -7.96728515	     61.60099104	     46.97697672	      0.00000000	      0.00000000
     20.23714286	     -3.45472231	     -3.44155650	     -2.61385172	      0.83430063	      0.93490761	      0.42207500	     30.46767282	     -3.53769953	     -7.60428465	     35.34245738	     35.34245738	      3.15893564	     -9.25751916	     -1.50901887	      5.65990374	     -2.03502442	     -9.10460878	     13.42668907	     13.42668907	     13.37062741	     -6.41597258	     -6.56736506	     -9.04301691	      5.86612094	      1.86747943	     -9.41099352	    -13.09924667	    -11.61873687	     20.41812074	     47.51455947	      0.00000000	      0.00000000	     20.15878153	    -14.42248486	     -8.16515464	     62.64723144	     47.01144388	      0.00000000	      0.00000000
     20.24957143	     -3.54704219	     -3.50696932	     -2.88865375	      0.83393404	      0.93421691	      0.42292464	     29.79905573	     -3.15813519	     -8.37031905	     30.53474707	     30.53474707	      2.91785078	     -7.21345710	     -0.74671876	      5.13132348	     -2.11598612	     -9.26994994	     13.25599671	     13.25599671	     13.68890685	     -6.47110153	     -6.68905929	     -9.11953839	      5.99985067	      2.14537430	    -10.68041868	    -13.21010228	    -11.83530621	     20.28797091	     47.52533313	      0.00000000	      0.00000000	     20.48411746	    -14.40939399	     -8.47637712	     64.13515304	     47.06062401	      0.00000000	      0.00000000
     20.26200000	     -3.61343650	     -3.53546315	     -3.17907574	      0.83385452	      0.93339888	      0.42397658	     29.02755241	     -2.74279055	     -9.16522688	     25.86592354	     25.86592354	      2.57302153	     -4.93206928	      0.20782257	      4.57098689	     -2.16411808	     -9.42776788	     13.13182755	     13.13182755	     14.03984707	     -6.54491465	     -6.83889759	     -9.13725309	      6.09106456	      2.42610208	    -11.86216627	    -13.27120359	    -12.08462955	     20.32718643	     47.53148950	      0.00000000	      0.00000000	     20.65291126	    -14.38540417	     -8.85583578	     65.81537642	     47.11733405	      0.00000000	      0.00000000
     20.27442857	     -3.65185387	     -3.51057923	     -3.48628378	      0.83391743	      0.93240485	      0.42523394	     28.27505544	     -2.35080091	    -10.01934409	     21.65053801	     21.65053801	      2.18459365	     -2.50333728	      1.38346656	      4.00494942	     -2.16640667	     -9.61487216	     13.06896950	     13.06896950	     14.42240704	     -6.65660103	     -6.99452045	     -9.23784608	      6.06517497	      2.64809581	    -12.93660146	    -13.29094197	    -12.35827852	     20.51020769	     47.53329775	      0.00000000	      0.00000000	     20.67837263	    -14.38858239	     -9.28535126	     67.58207440	     47.17861908	      0.00000000	      0.00000000
     20.28685714	     -3.63916999	     -3.36936835	     -3.79764161	      0.83430965	      0.93130817	      0.42652709	     27.65464901	     -2.18039329	    -11.24524779	     18.31634415	     18.31634415	      2.44981330	      0.73035899	      3.81377505	      3.31324597	     -2.02348734	     -9.86885808	     12.90576884	     12.90576884	     14.83683014	     -6.62105346	     -7.11213836	     -9.39258650	      5.90681238	      2.57541478	    -13.93508287	    -13.24417932	    -13.13612862	     21.68865091	     47.52547900	      0.00000000	      0.00000000	     19.86744713	    -14.48936229	    -10.38628562	     71.08073483	     47.32319207	      0.00000000	      0.00000000
     20.29928571	     -3.74892506	     -3.38682342	     -4.07573500	      0.83472982	      0.92997985	      0.42819107	     27.12418243	     -1.63752694	    -11.72502422	     15.32191443	     15.32191443	      1.97030362	      2.20521551	      5.08272012	      2.90076623	     -2.09863008	     -9.93946441	     13.03489484	     13.03489484	     15.26566936	     -6.94710575	     -7.21438707	     -9.26342013	      5.93865861	      2.72907448	    -14.55006524	    -13.18577852	    -13.25110200	     21.62271742	     47.52775588	      0.00000000	      0.00000000	     19.92566221	    -14.51079579	    -10.61615906	     71.87328285	     47.35675721	      0.00000000	      0.00000000
     20.31171429	     -3.82924037	     -3.15436056	     -4.38468950	      0.83535839	      0.92831146	      0.42996892	     27.09533088	     -1.45931624	    -11.88962108	     13.87555532	     13.87555532	      1.84068733	      3.07663824	      5.64412891	      2.44816528	     -1.89905720	    -10.08946968	     13.15831086	     13.15831086	     15.76784191	     -7.16573449	     -7.35853960	     -9.13053398	      5.67359917	      2.86359537	    -15.19588900	    -13.20985863	    -13.31744087	     21.50250333	     47.53029356	      0.00000000	      0.00000000	     20.02354051	    -14.79809072	    -10.84574999	     72.36948569	     47.38199641	      0.00000000	      0.00000000
     20.32414286	     -3.75707059	     -3.47465925	     -4.59181345	      0.83636694	      0.92746742	      0.43189903	     26.19608319	     -0.74709338	    -12.89064912	     11.83230983	     11.83230983	      1.44924907	      4.79829536	      6.79842484	      1.72043109	     -2.29561593	    -10.12424752	     13.17368133	     13.17368133	     16.22545024	     -7.36937900	     -7.23433724	     -9.22052393	      6.03975455	      3.22136069	    -15.62950234	    -13.09981888	    -13.44164411	     21.60326085	     47.52710159	      0.00000000	      0.00000000	     19.79417955	    -14.42786373	    -11.02015251	     73.68077943	     47.41848686	      0.00000000	      0.00000000
     20.33657143	     -3.76095606	     -3.57595609	     -4.76930289	      0.83748061	      0.92625668	      0.43382142	     26.04592273	     -0.48174002	    -13.75337609	     11.65514682	     11.65514682	      2.18552461	      6.13799733	      8.98209889	      1.13326047	     -2.47788321	    -10.24355062	     13.34592252	     13.34592252	     17.30024149	     -7.08113258	     -5.96662894	     -9.24214843	      6.13454350	      2.69438061	    -15.69220321	    -13.12447887	    -14.07841805	     22.49454113	     47.50697112	      0.00000000	      0.00000000	     18.51975157	    -14.57701289	    -12.22356856	     76.41645174	     47.57218738	      0.00000000	      0.00000000
     20.34900000	     -3.88599823	     -3.60597363	     -4.93202694	      0.83867987	      0.92480861	      0.43596255	     25.95399869	     -0.20295266	    -13.86094889	     11.72942827	     11.72942827	      2.14305179	      6.13845075	      8.96729282	      0.64250918	     -2.58688919	    -10.27108868	     13.37614760	     13.37614760	     17.71863715	     -7.23441525	     -6.06027638	     -8.94054530	      6.12269557	      2.73945825	    -15.72060629	    -13.03753482	    -14.07464480	     22.47944944	     47.50606260	      0.00000000	      0.00000000	     18.46469343	    -14.57117737	    -12.23871361	     76.44909041	     47.57395258	      0.00000000	      0.00000000
     20.36142857	     -3.78464702	     -3.89299010	     -5.06133140	      0.84041682	      0.92366659	      0.43832389	     25.46252830	      0.28348942	    -14.08109590	     11.99656310	     11.99656310	      1.39142390	      6.05950905	      6.19160645	     -0.05805914	     -3.01492979	    -10.42341057	     13.70454611	     13.70454611	     19.15495842	     -6.72912171	     -3.99129616	     -8.98586920	      6.44820199	      2.65228130	    -15.53501474	    -12.93945763	    -14.31055168	     22.39767663	     47.49650048	      0.00000000	      0.00000000	     17.56309217	    -14.47821950	    -12.81470170	     77.83461724	     47.66251435	      0.00000000	      0.00000000
     20.37385714	     -3.81061837	     -4.18993639	     -5.13362507	      0.84218141	      0.92247739	      0.44076439	     25.12863983	      0.73475253	    -14.13808154	     12.65725728	     12.65725728	      1.49008411	      5.82630930	      5.87840000	     -0.70266878	     -3.43819505	    -10.38503966	     13.76503293	     13.76503293	     19.56530537	     -6.87495326	     -3.98179311	     -8.78593482	      6.76979342	      2.76703250	    -15.38049329	    -12.77474741	    -14.29387342	     22.42821080	     47.49284727	      0.00000000	      0.00000000	     17.19846590	    -14.29704255	    -12.77509754	     77.73112686	     47.65709024	      0.00000000	      0.00000000
